{"title":"Bucky Larson Born To Be A Star 2011 BRRip Xvid AC3 Stang91 LKRG","uid":6963605,"size":1261880396,"categoryP":"video","categoryS":"hd___movies","magnet":"?xt=urn:btih:4e5a89aec19d6c0dd420e7971e3a6147fa0626ed&amp;dn=Bucky+Larson+Born+To+Be+A+Star+2011+BRRip+Xvid+AC3+Stang91+LKRG&amp;tr=udp%3A%2F%2Ftracker.openbittorrent.com%3A80&amp;tr=udp%3A%2F%2Fopen.demonii.com%3A1337&amp;tr=udp%3A%2F%2Ftracker.coppersurfer.tk%3A6969&amp;tr=udp%3A%2F%2Fexodus.desync.com%3A6969","seeders":0,"leechers":1,"uploader":".BONE.","files":2,"time":1326842875,"description":"A kid from the Midwest moves out to Hollywood in order to follow in his parents footsteps -- and\nbecome a porn star.\n\n\n\nEncoded By .......: Stang91\nRuntime ..........: 1h 36mn\nFile Size ........: 1.18 GB\nResolution .......: 1280x1200\nIMDb URL .........: http://www.imdb.com/title/tt1411664/\nSource ...........: BluRay x264-ALLiANCE Thanks\nGenre ............: Comedy\nLanguage .........: English\nSubtitles ........: None\nVideo\nID : 0\nFormat : MPEG-4 Visual\nFormat profile : Advanced Simple@L5\nFormat settings, BVOP : Yes\nFormat settings, QPel : No\nFormat settings, GMC : No warppoints\nFormat settings, Matrix : Default (H.263)\nMuxing mode : Packed bitstream\nCodec ID : XVID\nCodec ID/Hint : XviD\nDuration : 1h 36mn\nBit rate : 1 280 Kbps\nWidth : 1 200 pixels\nHeight : 640 pixels\nDisplay aspect ratio : 1.875\nFrame rate : 23.976 fps\nColor space : YUV\nChroma subsampling : 4:2:0\nBit depth : 8 bits\nScan type : Progressive\nCompression mode : Lossy\nBits/(Pixel*Frame) : 0.070\nStream size : 887 MiB (74%)\nWriting library : XviD 64\nAudio\nID : 1\nFormat : AC-3\nFormat/Info : Audio Coding 3\nMode extension : CM (complete main)\nCodec ID : 2000\nDuration : 1h 36mn\nBit rate mode : Constant\nBit rate : 448 Kbps\nChannel(s) : 6 channels\nChannel positions : Front: L C R, Side: L R, LFE\nSampling rate : 48.0 KHz\nBit depth : 16 bits\nCompression mode : Lossy\nStream size : 310 MiB (26%)\nAlignment : Split accross interleaves\nInterleave, duration : 42 ms (1.00 video frame)\nInterleave, preload duration : 500 ms\n &lt;a href=&quot;\nhttp://www.shotpix.com/images/60906705746397439425.png&quot; rel=&quot;nofollow&quot; target=&quot;_NEW&quot;&gt;\nhttp://www.shotpix.com/images/60906705746397439425.png&lt;/a&gt; &lt;a href=&quot;\nhttp://www.shotpix.com/images/21107916086955399976.png&quot; rel=&quot;nofollow&quot; target=&quot;_NEW&quot;&gt;\nhttp://www.shotpix.com/images/21107916086955399976.png&lt;/a&gt; &lt;a href=&quot;\nhttp://www.shotpix.com/images/65472945268339488169.png&quot; rel=&quot;nofollow&quot; target=&quot;_NEW&quot;&gt;\nhttp://www.shotpix.com/images/65472945268339488169.png&lt;/a&gt; &lt;a href=&quot;\nhttp://www.shotpix.com/images/24162154748589678750.png&quot; rel=&quot;nofollow&quot; target=&quot;_NEW&quot;&gt;\nhttp://www.shotpix.com/images/24162154748589678750.png&lt;/a&gt;","torrent":{"xt":"urn:btih:4e5a89aec19d6c0dd420e7971e3a6147fa0626ed","amp;dn":"Bucky+Larson+Born+To+Be+A+Star+2011+BRRip+Xvid+AC3+Stang91+LKRG","amp;tr":["udp%3A%2F%2Ftracker.openbittorrent.com%3A80","udp%3A%2F%2Fopen.demonii.com%3A1337","udp%3A%2F%2Ftracker.coppersurfer.tk%3A6969","udp%3A%2F%2Fexodus.desync.com%3A6969"],"infoHash":"4e5a89aec19d6c0dd420e7971e3a6147fa0626ed","infoHashBuffer":{"type":"Buffer","data":[78,90,137,174,193,157,108,13,212,32,231,151,30,58,97,71,250,6,38,237]},"announce":[],"urlList":[]}}